<svg xmlns="http://www.w3.org/2000/svg" viewBox="0 0 800 70" width="100%" height="70" fill="none">
  <style>
    <![CDATA[
    .carousel-track {
      animation: scroll 45s linear infinite;
    }
    @keyframes scroll {
      0% { transform: translateX(0); }
      100% { transform: translateX(-900px); }
    }
    .logo {
      transition: filter 0.3s;
    }
    .logo:hover {
      filter: drop-shadow(0px 0px 8px rgba(255,255,255,0.5));
    }
    /* Adaptive color for text-based logos (Express, AWS) */
    .adaptive-icon {
      fill: #1a1a1a;
    }
    @media (prefers-color-scheme: dark) {
      .adaptive-icon {
        fill: #ffffff;
      }
    }
    ]]>
  </style>
  <defs>
    <mask id="fade-mask">
      <rect width="800" height="70" fill="url(#mask-grad)" />
    </mask>
    <linearGradient id="mask-grad" x1="0" y1="0" x2="1" y2="0">
      <stop offset="0%" stop-color="white" stop-opacity="0" />
      <stop offset="15%" stop-color="white" stop-opacity="0.3" />
      <stop offset="25%" stop-color="white" stop-opacity="1" />
      <stop offset="75%" stop-color="white" stop-opacity="1" />
      <stop offset="85%" stop-color="white" stop-opacity="0.3" />
      <stop offset="100%" stop-color="white" stop-opacity="0" />
    </linearGradient>
  </defs>
  <g mask="url(#fade-mask)">
    <g class="carousel-track">
      <!-- SET 1 -->
      <svg class="logo" x="20" y="17" width="36" height="36" viewBox="0 0 24 24">
        <path fill="#61DAFB" d="M14.23 12.004a2.236 2.236 0 0 1-2.235 2.236 2.236 2.236 0 0 1-2.236-2.236 2.236 2.236 0 0 1 2.235-2.236 2.236 2.236 0 0 1 2.236 2.236zm2.648-10.69c-1.346 0-3.107.96-4.888 2.622-1.78-1.653-3.542-2.602-4.887-2.602-.41 0-.783.093-1.106.278-1.375.793-1.683 3.264-.973 6.365C1.98 8.917 0 10.42 0 12.004c0 1.59 1.99 3.097 5.043 4.03-.704 3.113-.39 5.588.988 6.38.32.187.69.275 1.102.275 1.345 0 3.107-.96 4.888-2.624 1.78 1.654 3.542 2.603 4.887 2.603.41 0 .783-.09 1.106-.275 1.374-.792 1.683-3.263.973-6.365C22.02 15.096 24 13.59 24 12.004c0-1.59-1.99-3.097-5.043-4.032.704-3.11.39-5.587-.988-6.38-.318-.184-.688-.277-1.092-.278zm-.005 1.09v.006c.225 0 .406.044.558.127.666.382.955 1.835.73 3.704-.054.46-.142.945-.25 1.44-.96-.236-2.006-.417-3.107-.534-.66-.905-1.345-1.727-2.035-2.447 1.592-1.48 3.087-2.292 4.105-2.295zm-9.77.02c1.012 0 2.514.808 4.11 2.28-.686.72-1.37 1.537-2.02 2.442-1.107.117-2.154.298-3.113.538-.112-.49-.195-.964-.254-1.42-.23-1.868.054-3.32.714-3.707.19-.09.4-.127.563-.132zm4.882 3.05c.455.468.91.992 1.36 1.564-.44-.02-.89-.034-1.345-.034-.46 0-.915.01-1.36.034.44-.572.895-1.096 1.345-1.565zM12 8.1c.74 0 1.477.034 2.202.093.406.582.802 1.203 1.183 1.86.372.64.71 1.29 1.018 1.946-.308.655-.646 1.31-1.013 1.95-.38.66-.773 1.288-1.18 1.87-.728.063-1.466.098-2.21.098-.74 0-1.477-.035-2.202-.093-.406-.582-.802-1.204-1.183-1.86-.372-.64-.71-1.29-1.018-1.946.303-.657.646-1.313 1.013-1.954.38-.66.773-1.286 1.18-1.868.728-.064 1.466-.098 2.21-.098zm-3.635.254c-.24.377-.48.763-.704 1.16-.225.39-.435.782-.635 1.174-.265-.656-.49-1.31-.676-1.947.64-.15 1.315-.283 2.015-.386zm7.26 0c.695.103 1.365.23 2.006.387-.18.632-.405 1.282-.66 1.933-.2-.39-.41-.783-.64-1.174-.225-.392-.465-.774-.705-1.146zm3.063.675c.484.15.944.317 1.375.498 1.732.74 2.852 1.708 2.852 2.476-.005.768-1.125 1.74-2.857 2.475-.42.18-.88.342-1.355.493-.28-.958-.646-1.956-1.1-2.98.45-1.017.81-2.01 1.085-2.964zm-13.395.004c.278.96.645 1.957 1.1 2.98-.45 1.017-.812 2.01-1.086 2.964-.484-.15-.944-.318-1.37-.5-1.732-.737-2.852-1.706-2.852-2.474 0-.768 1.12-1.742 2.852-2.476.42-.18.88-.342 1.356-.494zm11.678 4.28c.265.657.49 1.312.676 1.948-.64.157-1.316.29-2.016.39.24-.375.48-.762.705-1.158.225-.39.435-.788.636-1.18zm-9.945.02c.2.392.41.783.64 1.175.23.39.465.772.705 1.143-.695-.102-1.365-.23-2.006-.386.18-.63.406-1.282.66-1.933zM17.92 16.32c.112.493.2.968.254 1.423.23 1.868-.054 3.32-.714 3.708-.147.09-.338.128-.563.128-1.012 0-2.514-.807-4.11-2.28.686-.72 1.37-1.536 2.02-2.44 1.107-.118 2.154-.3 3.113-.54zm-11.83.01c.96.234 2.006.415 3.107.532.66.905 1.345 1.727 2.035 2.446-1.595 1.483-3.092 2.295-4.11 2.295-.22-.005-.406-.05-.553-.132-.666-.38-.955-1.834-.73-3.703.054-.46.142-.944.25-1.438zm4.56.64c.44.02.89.034 1.345.034.46 0 .915-.01 1.36-.034-.44.572-.895 1.095-1.345 1.565-.455-.47-.91-.993-1.36-1.565z"/>
      </svg>
      <svg class="logo" x="110" y="17" width="36" height="36" viewBox="0 0 24 24">
        <path fill="#3178C6" d="M1.125 0C.502 0 0 .502 0 1.125v21.75C0 23.498.502 24 1.125 24h21.75c.623 0 1.125-.502 1.125-1.125V1.125C24 .502 23.498 0 22.875 0zm17.363 9.75c.612 0 1.154.037 1.627.111a6.38 6.38 0 0 1 1.306.34v2.458a3.95 3.95 0 0 0-.643-.361 5.093 5.093 0 0 0-.717-.26 5.453 5.453 0 0 0-1.426-.2c-.3 0-.573.028-.819.086a2.1 2.1 0 0 0-.623.242c-.17.104-.3.229-.393.374a.888.888 0 0 0-.14.49c0 .196.053.373.156.529.104.156.252.304.443.444s.423.276.696.41c.273.135.582.274.926.416.47.197.892.407 1.266.628.374.222.695.473.963.753.268.279.472.598.614.957.142.359.214.776.214 1.253 0 .657-.125 1.21-.373 1.656a3.033 3.033 0 0 1-1.012 1.085 4.38 4.38 0 0 1-1.487.596c-.566.12-1.163.18-1.79.18a9.916 9.916 0 0 1-1.84-.164 5.544 5.544 0 0 1-1.512-.493v-2.63a5.033 5.033 0 0 0 3.237 1.2c.333 0 .624-.03.872-.09.249-.06.456-.144.623-.25.166-.108.29-.234.373-.38a1.023 1.023 0 0 0-.074-1.089 2.12 2.12 0 0 0-.537-.5 5.597 5.597 0 0 0-.807-.444 27.72 27.72 0 0 0-1.007-.436c-.918-.383-1.602-.852-2.053-1.405-.45-.553-.676-1.222-.676-2.005 0-.614.123-1.141.369-1.582.246-.441.58-.804 1.004-1.089a4.494 4.494 0 0 1 1.47-.629 7.536 7.536 0 0 1 1.77-.201zm-15.113.188h9.563v2.166H9.506v9.646H6.789v-9.646H3.375z"/>
      </svg>
      <svg class="logo" x="200" y="17" width="36" height="36" viewBox="0 0 24 24">
        <path fill="#06B6D4" d="M12.001,4.8c-3.2,0-5.2,1.6-6,4.8c1.2-1.6,2.6-2.2,4.2-1.8c0.913,0.228,1.565,0.89,2.288,1.624 C13.666,10.618,15.027,12,18.001,12c3.2,0,5.2-1.6,6-4.8c-1.2,1.6-2.6,2.2-4.2,1.8c-0.913-0.228-1.565-0.89-2.288-1.624 C16.337,6.182,14.976,4.8,12.001,4.8z M6.001,12c-3.2,0-5.2,1.6-6,4.8c1.2-1.6,2.6-2.2,4.2-1.8c0.913,0.228,1.565,0.89,2.288,1.624 c1.177,1.194,2.538,2.576,5.512,2.576c3.2,0,5.2-1.6,6-4.8c-1.2,1.6-2.6,2.2-4.2,1.8c-0.913-0.228-1.565-0.89-2.288-1.624 C10.337,13.382,8.976,12,6.001,12z"/>
      </svg>
      <svg class="logo" x="290" y="17" width="36" height="36" viewBox="0 0 128 128">

        <path fill="#0074BD" d="M47.617 98.12s-4.767 2.774 3.397 3.71c9.892 1.13 14.947.968 25.845-1.092 0 0 2.871 1.795 6.873 3.351-24.439 10.47-55.308-.607-36.115-5.969zm-2.988-13.665s-5.348 3.959 2.823 4.805c10.567 1.091 18.91 1.18 33.354-1.6 0 0 1.993 2.025 5.132 3.131-29.542 8.64-62.446.68-41.309-6.336z"/>
        <path fill="#EA2D2E" d="M69.802 61.271c6.025 6.935-1.58 13.17-1.58 13.17s15.289-7.891 8.269-17.777c-6.559-9.215-11.587-13.792 15.635-29.58 0 .001-42.731 10.67-22.324 34.187z"/>
        <path fill="#0074BD" d="M102.123 108.229s3.529 2.91-3.888 5.159c-14.102 4.272-58.706 5.56-71.094.171-4.451-1.938 3.899-4.625 6.526-5.192 2.739-.593 4.303-.485 4.303-.485-4.953-3.487-32.013 6.85-13.743 9.815 49.821 8.076 90.817-3.637 77.896-9.468zM49.912 70.294s-22.686 5.389-8.033 7.348c6.188.828 18.518.638 30.011-.326 9.39-.789 18.813-2.474 18.813-2.474s-3.308 1.419-5.704 3.053c-23.042 6.061-67.544 3.238-54.731-2.958 10.832-5.239 19.644-4.643 19.644-4.643zm40.697 22.747c23.421-12.167 12.591-23.86 5.032-22.285-1.848.385-2.677.72-2.677.72s.688-1.079 2-1.543c14.953-5.255 26.451 15.503-4.823 23.725 0-.002.359-.327.468-.617z"/>
        <path fill="#EA2D2E" d="M76.491 1.587S89.459 14.563 64.188 34.51c-20.266 16.006-4.621 25.13-.007 35.559-11.831-10.673-20.509-20.07-14.688-28.815C58.041 28.42 81.722 22.195 76.491 1.587z"/>
        <path fill="#0074BD" d="M52.214 126.021c22.476 1.437 57-.8 57.817-11.436 0 0-1.571 4.032-18.577 7.231-19.186 3.612-42.854 3.191-56.887.874 0 .001 2.875 2.381 17.647 3.331z"/>
      </svg>
      <svg class="logo" x="380" y="17" width="36" height="36" viewBox="0 0 24 24">
        <path fill="#3776AB" d="M14.25.18l.9.2.73.26.59.3.45.32.34.34.25.34.16.33.1.3.04.26.02.2-.01.13V8.5l-.05.63-.13.55-.21.46-.26.38-.3.31-.33.25-.35.19-.35.14-.33.1-.3.07-.26.04-.21.02H8.77l-.69.05-.59.14-.5.22-.41.27-.33.32-.27.35-.2.36-.15.37-.1.35-.07.32-.04.27-.02.21v3.06H3.17l-.21-.03-.28-.07-.32-.12-.35-.18-.36-.26-.36-.36-.35-.46-.32-.59-.28-.73-.21-.88-.14-1.05-.05-1.23.06-1.22.16-1.04.24-.87.32-.71.36-.57.4-.44.42-.33.42-.24.4-.16.36-.1.32-.05.24-.01h.16l.06.01h8.16v-.83H6.18l-.01-2.75-.02-.37.05-.34.11-.31.17-.28.25-.26.31-.23.38-.2.44-.18.51-.15.58-.12.64-.1.71-.06.77-.04.84-.02 1.27.05zm-6.3 1.98l-.23.33-.08.41.08.41.23.34.33.22.41.09.41-.09.33-.22.23-.34.08-.41-.08-.41-.23-.33-.33-.22-.41-.09-.41.09zm13.09 3.95l.28.06.32.12.35.18.36.27.36.35.35.47.32.59.28.73.21.88.14 1.04.05 1.23-.06 1.23-.16 1.04-.24.86-.32.71-.36.57-.4.45-.42.33-.42.24-.4.16-.36.09-.32.05-.24.02-.16-.01h-8.22v.82h5.84l.01 2.76.02.36-.05.34-.11.31-.17.29-.25.25-.31.24-.38.2-.44.17-.51.15-.58.13-.64.09-.71.07-.77.04-.84.01-1.27-.04-1.07-.14-.9-.2-.73-.25-.59-.3-.45-.33-.34-.34-.25-.34-.16-.33-.1-.3-.04-.25-.02-.2.01-.13v-5.34l.05-.64.13-.54.21-.46.26-.38.3-.32.33-.24.35-.2.35-.14.33-.1.3-.06.26-.04.21-.02.13-.01h5.84l.69-.05.59-.14.5-.21.41-.28.33-.32.27-.35.2-.36.15-.36.1-.35.07-.32.04-.28.02-.21V6.07h2.09l.14.01zm-6.47 14.25l-.23.33-.08.41.08.41.23.33.33.23.41.08.41-.08.33-.23.23-.33.08-.41-.08-.41-.23-.33-.33-.23-.41-.08-.41.08z"/>
      </svg>
      <svg class="logo" x="470" y="17" width="36" height="36" viewBox="0 0 24 24">
        <path fill="#5FA04E" d="M11.998,24c-0.321,0-0.641-0.084-0.922-0.247l-2.936-1.737c-0.438-0.245-0.224-0.332-0.08-0.383 c0.585-0.203,0.703-0.25,1.328-0.604c0.065-0.037,0.151-0.023,0.218,0.017l2.256,1.339c0.082,0.045,0.197,0.045,0.272,0l8.795-5.076 c0.082-0.047,0.134-0.141,0.134-0.238V6.921c0-0.099-0.053-0.192-0.137-0.242l-8.791-5.072c-0.081-0.047-0.189-0.047-0.271,0 L3.075,6.68C2.99,6.729,2.936,6.825,2.936,6.921v10.15c0,0.097,0.054,0.189,0.139,0.235l2.409,1.392 c1.307,0.654,2.108-0.116,2.108-0.89V7.787c0-0.142,0.114-0.253,0.256-0.253h1.115c0.139,0,0.255,0.112,0.255,0.253v10.021 c0,1.745-0.95,2.745-2.604,2.745c-0.508,0-0.909,0-2.026-0.551L2.28,18.675c-0.57-0.329-0.922-0.945-0.922-1.604V6.921 c0-0.659,0.353-1.275,0.922-1.603l8.795-5.082c0.557-0.315,1.296-0.315,1.848,0l8.794,5.082c0.57,0.329,0.924,0.944,0.924,1.603 v10.15c0,0.659-0.354,1.273-0.924,1.604l-8.794,5.078C12.643,23.916,12.324,24,11.998,24z M19.099,13.993 c0-1.9-1.284-2.406-3.987-2.763c-2.731-0.361-3.009-0.548-3.009-1.187c0-0.528,0.235-1.233,2.258-1.233 c1.807,0,2.473,0.389,2.747,1.607c0.024,0.115,0.129,0.199,0.247,0.199h1.141c0.071,0,0.138-0.031,0.186-0.081 c0.048-0.054,0.074-0.123,0.067-0.196c-0.177-2.098-1.571-3.076-4.388-3.076c-2.508,0-4.004,1.058-4.004,2.833 c0,1.925,1.488,2.457,3.895,2.695c2.88,0.282,3.103,0.703,3.103,1.269c0,0.983-0.789,1.402-2.642,1.402 c-2.327,0-2.839-0.584-3.011-1.742c-0.02-0.124-0.126-0.215-0.253-0.215h-1.137c-0.141,0-0.254,0.112-0.254,0.253 c0,1.482,0.806,3.248,4.655,3.248C17.501,17.007,19.099,15.91,19.099,13.993z"/>
      </svg>
      <svg class="logo" x="560" y="17" width="36" height="36" viewBox="0 0 24 24">
        <path class="adaptive-icon" d="M12.262 16.666h1.146l6.975-9.325H19.22zm9.778 1.441v.004l-4.334-5.706-.557.74 4.873 6.682H.945V4.173h9.505l5.026 6.7.574-.772-4.374-5.928h.003l-.719-.945H0v17.544h24zM10.917 8.705a3.8 3.8 0 0 0-1.292-1.183q-.796-.45-1.916-.45c-.746 0-1.37.14-1.906.424a3.76 3.76 0 0 0-1.31 1.12 4.9 4.9 0 0 0-.75 1.581 7.17 7.17 0 0 0 0 3.696c.148.567.402 1.101.75 1.573a3.5 3.5 0 0 0 1.31 1.066q.803.39 1.906.389 1.77 0 2.739-.868.966-.867 1.328-2.457h-1.139q-.271 1.084-.977 1.734-.704.651-1.952.65-.812 0-1.392-.342a3.1 3.1 0 0 1-.957-.869 3.5 3.5 0 0 1-.551-1.182 5 5 0 0 1-.17-1.133 9 9 0 0 0-.015-.286 4.5 4.5 0 0 1 .015-.829c.047-.418.147-.83.296-1.223A3.7 3.7 0 0 1 5.54 9.05a2.9 2.9 0 0 1 .922-.742q.541-.28 1.246-.28c.47 0 .869.093 1.23.28q.541.281.922.742.379.461.587 1.057t.225 1.246H5.625l.004.957h6.182a7.3 7.3 0 0 0-.18-1.924 4.9 4.9 0 0 0-.715-1.68z"/>
      </svg>
      <svg class="logo" x="650" y="17" width="36" height="36" viewBox="0 0 24 24">
        <path fill="#4479A1" d="M16.405 5.501c-.115 0-.193.014-.274.033v.013h.014c.054.104.146.18.214.273.054.107.1.214.154.32l.014-.015c.094-.066.14-.172.14-.333-.04-.047-.046-.094-.08-.14-.04-.067-.126-.1-.18-.153zM5.77 18.695h-.927a50.854 50.854 0 00-.27-4.41h-.008l-1.41 4.41H2.45l-1.4-4.41h-.01a72.892 72.892 0 00-.195 4.41H0c.055-1.966.192-3.81.41-5.53h1.15l1.335 4.064h.008l1.347-4.064h1.095c.242 2.015.384 3.86.428 5.53zm4.017-4.08c-.378 2.045-.876 3.533-1.492 4.46-.482.716-1.01 1.073-1.583 1.073-.153 0-.34-.046-.566-.138v-.494c.11.017.24.026.386.026.268 0 .483-.075.647-.222.197-.18.295-.382.295-.605 0-.155-.077-.47-.23-.944L6.23 14.615h.91l.727 2.36c.164.536.233.91.205 1.123.4-1.064.678-2.227.835-3.483zm12.325 4.08h-2.63v-5.53h.885v4.85h1.745zm-3.32.135l-1.016-.5c.09-.076.177-.158.255-.25.433-.506.648-1.258.648-2.253 0-1.83-.718-2.746-2.155-2.746-.704 0-1.254.232-1.65.697-.43.508-.646 1.256-.646 2.245 0 .972.19 1.686.574 2.14.35.41.877.615 1.583.615.264 0 .506-.033.725-.098l1.325.772.36-.622zM15.5 17.588c-.225-.36-.337-.94-.337-1.736 0-1.393.424-2.09 1.27-2.09.443 0 .77.167.977.5.224.362.336.936.336 1.723 0 1.404-.424 2.108-1.27 2.108-.445 0-.77-.167-.978-.5zm-1.658-.425c0 .47-.172.856-.516 1.156-.344.3-.803.45-1.384.45-.543 0-1.064-.172-1.573-.515l.237-.476c.438.22.833.328 1.19.328.332 0 .593-.073.783-.22a.754.754 0 00.3-.615c0-.33-.23-.61-.648-.845-.388-.213-1.163-.657-1.163-.657-.422-.307-.632-.636-.632-1.177 0-.45.157-.81.47-1.085.315-.278.72-.415 1.22-.415.512 0 .98.136 1.4.41l-.213.476a2.726 2.726 0 00-1.064-.23c-.283 0-.502.068-.654.206a.685.685 0 00-.248.524c0 .328.234.61.666.85.393.215 1.187.67 1.187.67.433.305.648.63.648 1.168zm9.382-5.852c-.535-.014-.95.04-1.297.188-.1.04-.26.04-.274.167.055.053.063.14.11.214.08.134.218.313.346.407.14.11.28.216.427.31.26.16.555.255.81.416.145.094.293.213.44.313.073.05.12.14.214.172v-.02c-.046-.06-.06-.147-.105-.214-.067-.067-.134-.127-.2-.193a3.223 3.223 0 00-.695-.675c-.214-.146-.682-.35-.77-.595l-.013-.014c.146-.013.32-.066.46-.106.227-.06.435-.047.67-.106.106-.027.213-.06.32-.094v-.06c-.12-.12-.21-.283-.334-.395a8.867 8.867 0 00-1.104-.823c-.21-.134-.476-.22-.697-.334-.08-.04-.214-.06-.26-.127-.12-.146-.19-.34-.275-.514a17.69 17.69 0 01-.547-1.163c-.12-.262-.193-.523-.34-.763-.69-1.137-1.437-1.826-2.586-2.5-.247-.14-.543-.2-.856-.274-.167-.008-.334-.02-.5-.027-.11-.047-.216-.174-.31-.235-.38-.24-1.364-.76-1.644-.072-.18.434.267.862.422 1.082.115.153.26.328.34.5.047.116.06.235.107.356.106.294.207.622.347.897.073.14.153.287.247.413.054.073.146.107.167.227-.094.136-.1.334-.154.5-.24.757-.146 1.693.194 2.25.107.166.362.534.703.393.3-.12.234-.5.32-.835.02-.08.007-.133.048-.187v.015c.094.188.188.367.274.555.206.328.566.668.867.895.16.12.287.328.487.402v-.02h-.015c-.043-.058-.1-.086-.154-.133a3.445 3.445 0 01-.35-.4 8.76 8.76 0 01-.747-1.218c-.11-.21-.202-.436-.29-.643-.04-.08-.04-.2-.107-.24-.1.146-.247.273-.32.453-.127.288-.14.642-.188 1.01-.027.007-.014 0-.027.014-.214-.052-.287-.274-.367-.46-.2-.475-.233-1.238-.06-1.785.047-.14.247-.582.167-.716-.042-.127-.174-.2-.247-.303a2.478 2.478 0 01-.24-.427c-.16-.374-.24-.788-.414-1.162-.08-.173-.22-.354-.334-.513-.127-.18-.267-.307-.368-.52-.033-.073-.08-.194-.027-.274.014-.054.042-.075.094-.09.088-.072.335.022.422.062.247.1.455.194.662.334.094.066.195.193.315.226h.14c.214.047.455.014.655.073.355.114.675.28.962.46a5.953 5.953 0 012.085 2.286c.08.154.115.295.188.455.14.33.313.663.455.982.14.315.275.636.476.897.1.14.502.213.682.286.133.06.34.115.46.188.23.14.454.3.67.454.11.076.443.243.463.378z"/>
      </svg>
      <svg class="logo" x="740" y="17" width="36" height="36" viewBox="0 0 128 128">

        <path class="adaptive-icon" d="M36.379 53.64c0 1.56.168 2.825.465 3.75.336.926.758 1.938 1.347 3.032.207.336.293.672.293.969 0 .418-.254.84-.8 1.261l-2.653 1.77c-.379.25-.758.379-1.093.379-.422 0-.844-.211-1.266-.59a13.28 13.28 0 0 1-1.516-1.98 34.153 34.153 0 0 1-1.304-2.485c-3.282 3.875-7.41 5.813-12.38 5.813-3.535 0-6.355-1.012-8.421-3.032-2.063-2.023-3.114-4.718-3.114-8.086 0-3.578 1.262-6.484 3.833-8.671 2.566-2.192 5.976-3.286 10.316-3.286 1.43 0 2.902.125 4.46.336 1.56.211 3.161.547 4.845.926v-3.074c0-3.2-.676-5.43-1.98-6.734C26.061 32.633 23.788 32 20.546 32c-1.473 0-2.988.168-4.547.547a33.416 33.416 0 0 0-4.547 1.433c-.676.293-1.18.461-1.473.547-.296.082-.507.125-.675.125-.59 0-.883-.422-.883-1.304v-2.063c0-.676.082-1.18.293-1.476.21-.293.59-.586 1.18-.883 1.472-.758 3.242-1.39 5.304-1.895 2.063-.547 4.254-.8 6.57-.8 5.008 0 8.672 1.136 11.032 3.41 2.316 2.273 3.492 5.726 3.492 10.359v13.64Zm-17.094 6.403c1.387 0 2.82-.254 4.336-.758 1.516-.508 2.863-1.433 4-2.695.672-.8 1.18-1.684 1.43-2.695.254-1.012.422-2.23.422-3.665v-1.765a34.401 34.401 0 0 0-3.871-.719 31.816 31.816 0 0 0-3.961-.25c-2.82 0-4.883.547-6.274 1.684-1.387 1.136-2.062 2.734-2.062 4.84 0 1.98.504 3.453 1.558 4.464 1.012 1.051 2.485 1.559 4.422 1.559Zm33.809 4.547c-.758 0-1.262-.125-1.598-.422-.34-.254-.633-.84-.887-1.64L40.715 29.98c-.25-.843-.38-1.39-.38-1.687 0-.672.337-1.05 1.013-1.05h4.125c.8 0 1.347.124 1.644.421.336.25.59.84.84 1.64l7.074 27.876 6.57-27.875c.208-.84.462-1.39.797-1.64.34-.255.93-.423 1.688-.423h3.367c.8 0 1.348.125 1.684.422.336.25.633.84.8 1.64l6.653 28.212 7.285-28.211c.25-.84.547-1.39.84-1.64.336-.255.887-.423 1.644-.423h3.914c.676 0 1.055.336 1.055 1.051 0 .21-.043.422-.086.676-.043.254-.125.59-.293 1.05L80.801 62.57c-.254.84-.547 1.387-.887 1.64-.336.255-.883.423-1.598.423h-3.62c-.801 0-1.348-.13-1.684-.422-.34-.297-.633-.844-.801-1.684l-6.527-27.16-6.485 27.117c-.21.844-.46 1.391-.8 1.684-.337.297-.926.422-1.684.422Zm54.105 1.137c-2.187 0-4.379-.254-6.484-.758-2.106-.504-3.746-1.055-4.84-1.684-.676-.379-1.137-.8-1.305-1.18a2.919 2.919 0 0 1-.254-1.18v-2.148c0-.882.336-1.304.97-1.304.25 0 .503.043.757.129.25.082.629.25 1.05.418a23.102 23.102 0 0 0 4.634 1.476c1.683.336 3.324.504 5.011.504 2.653 0 4.715-.465 6.145-1.39 1.433-.926 2.191-2.274 2.191-4 0-1.18-.379-2.145-1.136-2.946-.758-.8-2.192-1.516-4.254-2.191l-6.106-1.895c-3.074-.969-5.348-2.398-6.734-4.293-1.39-1.855-2.106-3.918-2.106-6.105 0-1.77.38-3.328 1.137-4.676a10.829 10.829 0 0 1 3.031-3.453c1.262-.965 2.696-1.684 4.38-2.188 1.683-.504 3.452-.715 5.304-.715.926 0 1.894.043 2.82.168.969.125 1.852.293 2.738.461.84.211 1.641.422 2.399.676.758.254 1.348.504 1.77.758.59.336 1.011.672 1.261 1.05.254.34.379.802.379 1.391v1.98c0 .884-.336 1.348-.969 1.348-.336 0-.883-.171-1.597-.507-2.403-1.094-5.098-1.641-8.086-1.641-2.399 0-4.293.379-5.598 1.18-1.309.797-1.98 2.02-1.98 3.746 0 1.18.421 2.191 1.261 2.988.844.8 2.403 1.602 4.633 2.316l5.98 1.895c3.032.969 5.22 2.316 6.524 4.043 1.305 1.727 1.938 3.707 1.938 5.895 0 1.812-.38 3.453-1.094 4.882-.758 1.434-1.77 2.696-3.074 3.707-1.305 1.051-2.864 1.809-4.672 2.36-1.895.586-3.875.883-6.024.883Zm0 0"/>
        <path fill="#f90" d="M118 73.348c-4.432.063-9.664 1.052-13.621 3.832-1.223.883-1.012 2.062.336 1.894 4.508-.547 14.44-1.726 16.21.547 1.77 2.23-1.976 11.62-3.663 15.79-.504 1.26.59 1.769 1.726.8 7.41-6.231 9.348-19.242 7.832-21.137-.757-.925-4.388-1.79-8.82-1.726zM1.63 75.859c-.927.116-1.347 1.236-.368 2.121 16.508 14.902 38.359 23.872 62.613 23.872 17.305 0 37.43-5.43 51.281-15.66 2.273-1.688.297-4.254-2.02-3.204-15.534 6.57-32.421 9.77-47.788 9.77-22.778 0-44.8-6.273-62.653-16.633-.39-.231-.755-.304-1.064-.266z"/>
      </svg>
      <svg class="logo" x="830" y="17" width="36" height="36" viewBox="0 0 24 24">
        <path fill="#F03C2E" d="M13.09 23.549a1.54 1.54 0 0 1-2.18 0L.451 13.089a1.54 1.54 0 0 1 0-2.179l7.191-7.19 2.733 2.733a1.85 1.85 0 0 0 .964 2.326v6.66a1.849 1.849 0 1 0 1.54 0V8.957l2.508 2.508a1.85 1.85 0 1 0 1.09-1.09l-2.634-2.634a1.85 1.85 0 0 0-2.378-2.377L8.73 2.63 10.91.451a1.54 1.54 0 0 1 2.179 0l10.459 10.46a1.54 1.54 0 0 1 0 2.179z"/>
      </svg>
      <g transform="translate(900, 0)">
        <!-- SET 2 -->
      <svg class="logo" x="20" y="17" width="36" height="36" viewBox="0 0 24 24">
        <path fill="#61DAFB" d="M14.23 12.004a2.236 2.236 0 0 1-2.235 2.236 2.236 2.236 0 0 1-2.236-2.236 2.236 2.236 0 0 1 2.235-2.236 2.236 2.236 0 0 1 2.236 2.236zm2.648-10.69c-1.346 0-3.107.96-4.888 2.622-1.78-1.653-3.542-2.602-4.887-2.602-.41 0-.783.093-1.106.278-1.375.793-1.683 3.264-.973 6.365C1.98 8.917 0 10.42 0 12.004c0 1.59 1.99 3.097 5.043 4.03-.704 3.113-.39 5.588.988 6.38.32.187.69.275 1.102.275 1.345 0 3.107-.96 4.888-2.624 1.78 1.654 3.542 2.603 4.887 2.603.41 0 .783-.09 1.106-.275 1.374-.792 1.683-3.263.973-6.365C22.02 15.096 24 13.59 24 12.004c0-1.59-1.99-3.097-5.043-4.032.704-3.11.39-5.587-.988-6.38-.318-.184-.688-.277-1.092-.278zm-.005 1.09v.006c.225 0 .406.044.558.127.666.382.955 1.835.73 3.704-.054.46-.142.945-.25 1.44-.96-.236-2.006-.417-3.107-.534-.66-.905-1.345-1.727-2.035-2.447 1.592-1.48 3.087-2.292 4.105-2.295zm-9.77.02c1.012 0 2.514.808 4.11 2.28-.686.72-1.37 1.537-2.02 2.442-1.107.117-2.154.298-3.113.538-.112-.49-.195-.964-.254-1.42-.23-1.868.054-3.32.714-3.707.19-.09.4-.127.563-.132zm4.882 3.05c.455.468.91.992 1.36 1.564-.44-.02-.89-.034-1.345-.034-.46 0-.915.01-1.36.034.44-.572.895-1.096 1.345-1.565zM12 8.1c.74 0 1.477.034 2.202.093.406.582.802 1.203 1.183 1.86.372.64.71 1.29 1.018 1.946-.308.655-.646 1.31-1.013 1.95-.38.66-.773 1.288-1.18 1.87-.728.063-1.466.098-2.21.098-.74 0-1.477-.035-2.202-.093-.406-.582-.802-1.204-1.183-1.86-.372-.64-.71-1.29-1.018-1.946.303-.657.646-1.313 1.013-1.954.38-.66.773-1.286 1.18-1.868.728-.064 1.466-.098 2.21-.098zm-3.635.254c-.24.377-.48.763-.704 1.16-.225.39-.435.782-.635 1.174-.265-.656-.49-1.31-.676-1.947.64-.15 1.315-.283 2.015-.386zm7.26 0c.695.103 1.365.23 2.006.387-.18.632-.405 1.282-.66 1.933-.2-.39-.41-.783-.64-1.174-.225-.392-.465-.774-.705-1.146zm3.063.675c.484.15.944.317 1.375.498 1.732.74 2.852 1.708 2.852 2.476-.005.768-1.125 1.74-2.857 2.475-.42.18-.88.342-1.355.493-.28-.958-.646-1.956-1.1-2.98.45-1.017.81-2.01 1.085-2.964zm-13.395.004c.278.96.645 1.957 1.1 2.98-.45 1.017-.812 2.01-1.086 2.964-.484-.15-.944-.318-1.37-.5-1.732-.737-2.852-1.706-2.852-2.474 0-.768 1.12-1.742 2.852-2.476.42-.18.88-.342 1.356-.494zm11.678 4.28c.265.657.49 1.312.676 1.948-.64.157-1.316.29-2.016.39.24-.375.48-.762.705-1.158.225-.39.435-.788.636-1.18zm-9.945.02c.2.392.41.783.64 1.175.23.39.465.772.705 1.143-.695-.102-1.365-.23-2.006-.386.18-.63.406-1.282.66-1.933zM17.92 16.32c.112.493.2.968.254 1.423.23 1.868-.054 3.32-.714 3.708-.147.09-.338.128-.563.128-1.012 0-2.514-.807-4.11-2.28.686-.72 1.37-1.536 2.02-2.44 1.107-.118 2.154-.3 3.113-.54zm-11.83.01c.96.234 2.006.415 3.107.532.66.905 1.345 1.727 2.035 2.446-1.595 1.483-3.092 2.295-4.11 2.295-.22-.005-.406-.05-.553-.132-.666-.38-.955-1.834-.73-3.703.054-.46.142-.944.25-1.438zm4.56.64c.44.02.89.034 1.345.034.46 0 .915-.01 1.36-.034-.44.572-.895 1.095-1.345 1.565-.455-.47-.91-.993-1.36-1.565z"/>
      </svg>
      <svg class="logo" x="110" y="17" width="36" height="36" viewBox="0 0 24 24">
        <path fill="#3178C6" d="M1.125 0C.502 0 0 .502 0 1.125v21.75C0 23.498.502 24 1.125 24h21.75c.623 0 1.125-.502 1.125-1.125V1.125C24 .502 23.498 0 22.875 0zm17.363 9.75c.612 0 1.154.037 1.627.111a6.38 6.38 0 0 1 1.306.34v2.458a3.95 3.95 0 0 0-.643-.361 5.093 5.093 0 0 0-.717-.26 5.453 5.453 0 0 0-1.426-.2c-.3 0-.573.028-.819.086a2.1 2.1 0 0 0-.623.242c-.17.104-.3.229-.393.374a.888.888 0 0 0-.14.49c0 .196.053.373.156.529.104.156.252.304.443.444s.423.276.696.41c.273.135.582.274.926.416.47.197.892.407 1.266.628.374.222.695.473.963.753.268.279.472.598.614.957.142.359.214.776.214 1.253 0 .657-.125 1.21-.373 1.656a3.033 3.033 0 0 1-1.012 1.085 4.38 4.38 0 0 1-1.487.596c-.566.12-1.163.18-1.79.18a9.916 9.916 0 0 1-1.84-.164 5.544 5.544 0 0 1-1.512-.493v-2.63a5.033 5.033 0 0 0 3.237 1.2c.333 0 .624-.03.872-.09.249-.06.456-.144.623-.25.166-.108.29-.234.373-.38a1.023 1.023 0 0 0-.074-1.089 2.12 2.12 0 0 0-.537-.5 5.597 5.597 0 0 0-.807-.444 27.72 27.72 0 0 0-1.007-.436c-.918-.383-1.602-.852-2.053-1.405-.45-.553-.676-1.222-.676-2.005 0-.614.123-1.141.369-1.582.246-.441.58-.804 1.004-1.089a4.494 4.494 0 0 1 1.47-.629 7.536 7.536 0 0 1 1.77-.201zm-15.113.188h9.563v2.166H9.506v9.646H6.789v-9.646H3.375z"/>
      </svg>
      <svg class="logo" x="200" y="17" width="36" height="36" viewBox="0 0 24 24">
        <path fill="#06B6D4" d="M12.001,4.8c-3.2,0-5.2,1.6-6,4.8c1.2-1.6,2.6-2.2,4.2-1.8c0.913,0.228,1.565,0.89,2.288,1.624 C13.666,10.618,15.027,12,18.001,12c3.2,0,5.2-1.6,6-4.8c-1.2,1.6-2.6,2.2-4.2,1.8c-0.913-0.228-1.565-0.89-2.288-1.624 C16.337,6.182,14.976,4.8,12.001,4.8z M6.001,12c-3.2,0-5.2,1.6-6,4.8c1.2-1.6,2.6-2.2,4.2-1.8c0.913,0.228,1.565,0.89,2.288,1.624 c1.177,1.194,2.538,2.576,5.512,2.576c3.2,0,5.2-1.6,6-4.8c-1.2,1.6-2.6,2.2-4.2,1.8c-0.913-0.228-1.565-0.89-2.288-1.624 C10.337,13.382,8.976,12,6.001,12z"/>
      </svg>
      <svg class="logo" x="290" y="17" width="36" height="36" viewBox="0 0 128 128">

        <path fill="#0074BD" d="M47.617 98.12s-4.767 2.774 3.397 3.71c9.892 1.13 14.947.968 25.845-1.092 0 0 2.871 1.795 6.873 3.351-24.439 10.47-55.308-.607-36.115-5.969zm-2.988-13.665s-5.348 3.959 2.823 4.805c10.567 1.091 18.91 1.18 33.354-1.6 0 0 1.993 2.025 5.132 3.131-29.542 8.64-62.446.68-41.309-6.336z"/>
        <path fill="#EA2D2E" d="M69.802 61.271c6.025 6.935-1.58 13.17-1.58 13.17s15.289-7.891 8.269-17.777c-6.559-9.215-11.587-13.792 15.635-29.58 0 .001-42.731 10.67-22.324 34.187z"/>
        <path fill="#0074BD" d="M102.123 108.229s3.529 2.91-3.888 5.159c-14.102 4.272-58.706 5.56-71.094.171-4.451-1.938 3.899-4.625 6.526-5.192 2.739-.593 4.303-.485 4.303-.485-4.953-3.487-32.013 6.85-13.743 9.815 49.821 8.076 90.817-3.637 77.896-9.468zM49.912 70.294s-22.686 5.389-8.033 7.348c6.188.828 18.518.638 30.011-.326 9.39-.789 18.813-2.474 18.813-2.474s-3.308 1.419-5.704 3.053c-23.042 6.061-67.544 3.238-54.731-2.958 10.832-5.239 19.644-4.643 19.644-4.643zm40.697 22.747c23.421-12.167 12.591-23.86 5.032-22.285-1.848.385-2.677.72-2.677.72s.688-1.079 2-1.543c14.953-5.255 26.451 15.503-4.823 23.725 0-.002.359-.327.468-.617z"/>
        <path fill="#EA2D2E" d="M76.491 1.587S89.459 14.563 64.188 34.51c-20.266 16.006-4.621 25.13-.007 35.559-11.831-10.673-20.509-20.07-14.688-28.815C58.041 28.42 81.722 22.195 76.491 1.587z"/>
        <path fill="#0074BD" d="M52.214 126.021c22.476 1.437 57-.8 57.817-11.436 0 0-1.571 4.032-18.577 7.231-19.186 3.612-42.854 3.191-56.887.874 0 .001 2.875 2.381 17.647 3.331z"/>
      </svg>
      <svg class="logo" x="380" y="17" width="36" height="36" viewBox="0 0 24 24">
        <path fill="#3776AB" d="M14.25.18l.9.2.73.26.59.3.45.32.34.34.25.34.16.33.1.3.04.26.02.2-.01.13V8.5l-.05.63-.13.55-.21.46-.26.38-.3.31-.33.25-.35.19-.35.14-.33.1-.3.07-.26.04-.21.02H8.77l-.69.05-.59.14-.5.22-.41.27-.33.32-.27.35-.2.36-.15.37-.1.35-.07.32-.04.27-.02.21v3.06H3.17l-.21-.03-.28-.07-.32-.12-.35-.18-.36-.26-.36-.36-.35-.46-.32-.59-.28-.73-.21-.88-.14-1.05-.05-1.23.06-1.22.16-1.04.24-.87.32-.71.36-.57.4-.44.42-.33.42-.24.4-.16.36-.1.32-.05.24-.01h.16l.06.01h8.16v-.83H6.18l-.01-2.75-.02-.37.05-.34.11-.31.17-.28.25-.26.31-.23.38-.2.44-.18.51-.15.58-.12.64-.1.71-.06.77-.04.84-.02 1.27.05zm-6.3 1.98l-.23.33-.08.41.08.41.23.34.33.22.41.09.41-.09.33-.22.23-.34.08-.41-.08-.41-.23-.33-.33-.22-.41-.09-.41.09zm13.09 3.95l.28.06.32.12.35.18.36.27.36.35.35.47.32.59.28.73.21.88.14 1.04.05 1.23-.06 1.23-.16 1.04-.24.86-.32.71-.36.57-.4.45-.42.33-.42.24-.4.16-.36.09-.32.05-.24.02-.16-.01h-8.22v.82h5.84l.01 2.76.02.36-.05.34-.11.31-.17.29-.25.25-.31.24-.38.2-.44.17-.51.15-.58.13-.64.09-.71.07-.77.04-.84.01-1.27-.04-1.07-.14-.9-.2-.73-.25-.59-.3-.45-.33-.34-.34-.25-.34-.16-.33-.1-.3-.04-.25-.02-.2.01-.13v-5.34l.05-.64.13-.54.21-.46.26-.38.3-.32.33-.24.35-.2.35-.14.33-.1.3-.06.26-.04.21-.02.13-.01h5.84l.69-.05.59-.14.5-.21.41-.28.33-.32.27-.35.2-.36.15-.36.1-.35.07-.32.04-.28.02-.21V6.07h2.09l.14.01zm-6.47 14.25l-.23.33-.08.41.08.41.23.33.33.23.41.08.41-.08.33-.23.23-.33.08-.41-.08-.41-.23-.33-.33-.23-.41-.08-.41.08z"/>
      </svg>
      <svg class="logo" x="470" y="17" width="36" height="36" viewBox="0 0 24 24">
        <path fill="#5FA04E" d="M11.998,24c-0.321,0-0.641-0.084-0.922-0.247l-2.936-1.737c-0.438-0.245-0.224-0.332-0.08-0.383 c0.585-0.203,0.703-0.25,1.328-0.604c0.065-0.037,0.151-0.023,0.218,0.017l2.256,1.339c0.082,0.045,0.197,0.045,0.272,0l8.795-5.076 c0.082-0.047,0.134-0.141,0.134-0.238V6.921c0-0.099-0.053-0.192-0.137-0.242l-8.791-5.072c-0.081-0.047-0.189-0.047-0.271,0 L3.075,6.68C2.99,6.729,2.936,6.825,2.936,6.921v10.15c0,0.097,0.054,0.189,0.139,0.235l2.409,1.392 c1.307,0.654,2.108-0.116,2.108-0.89V7.787c0-0.142,0.114-0.253,0.256-0.253h1.115c0.139,0,0.255,0.112,0.255,0.253v10.021 c0,1.745-0.95,2.745-2.604,2.745c-0.508,0-0.909,0-2.026-0.551L2.28,18.675c-0.57-0.329-0.922-0.945-0.922-1.604V6.921 c0-0.659,0.353-1.275,0.922-1.603l8.795-5.082c0.557-0.315,1.296-0.315,1.848,0l8.794,5.082c0.57,0.329,0.924,0.944,0.924,1.603 v10.15c0,0.659-0.354,1.273-0.924,1.604l-8.794,5.078C12.643,23.916,12.324,24,11.998,24z M19.099,13.993 c0-1.9-1.284-2.406-3.987-2.763c-2.731-0.361-3.009-0.548-3.009-1.187c0-0.528,0.235-1.233,2.258-1.233 c1.807,0,2.473,0.389,2.747,1.607c0.024,0.115,0.129,0.199,0.247,0.199h1.141c0.071,0,0.138-0.031,0.186-0.081 c0.048-0.054,0.074-0.123,0.067-0.196c-0.177-2.098-1.571-3.076-4.388-3.076c-2.508,0-4.004,1.058-4.004,2.833 c0,1.925,1.488,2.457,3.895,2.695c2.88,0.282,3.103,0.703,3.103,1.269c0,0.983-0.789,1.402-2.642,1.402 c-2.327,0-2.839-0.584-3.011-1.742c-0.02-0.124-0.126-0.215-0.253-0.215h-1.137c-0.141,0-0.254,0.112-0.254,0.253 c0,1.482,0.806,3.248,4.655,3.248C17.501,17.007,19.099,15.91,19.099,13.993z"/>
      </svg>
      <svg class="logo" x="560" y="17" width="36" height="36" viewBox="0 0 24 24">
        <path class="adaptive-icon" d="M12.262 16.666h1.146l6.975-9.325H19.22zm9.778 1.441v.004l-4.334-5.706-.557.74 4.873 6.682H.945V4.173h9.505l5.026 6.7.574-.772-4.374-5.928h.003l-.719-.945H0v17.544h24zM10.917 8.705a3.8 3.8 0 0 0-1.292-1.183q-.796-.45-1.916-.45c-.746 0-1.37.14-1.906.424a3.76 3.76 0 0 0-1.31 1.12 4.9 4.9 0 0 0-.75 1.581 7.17 7.17 0 0 0 0 3.696c.148.567.402 1.101.75 1.573a3.5 3.5 0 0 0 1.31 1.066q.803.39 1.906.389 1.77 0 2.739-.868.966-.867 1.328-2.457h-1.139q-.271 1.084-.977 1.734-.704.651-1.952.65-.812 0-1.392-.342a3.1 3.1 0 0 1-.957-.869 3.5 3.5 0 0 1-.551-1.182 5 5 0 0 1-.17-1.133 9 9 0 0 0-.015-.286 4.5 4.5 0 0 1 .015-.829c.047-.418.147-.83.296-1.223A3.7 3.7 0 0 1 5.54 9.05a2.9 2.9 0 0 1 .922-.742q.541-.28 1.246-.28c.47 0 .869.093 1.23.28q.541.281.922.742.379.461.587 1.057t.225 1.246H5.625l.004.957h6.182a7.3 7.3 0 0 0-.18-1.924 4.9 4.9 0 0 0-.715-1.68z"/>
      </svg>
      <svg class="logo" x="650" y="17" width="36" height="36" viewBox="0 0 24 24">
        <path fill="#4479A1" d="M16.405 5.501c-.115 0-.193.014-.274.033v.013h.014c.054.104.146.18.214.273.054.107.1.214.154.32l.014-.015c.094-.066.14-.172.14-.333-.04-.047-.046-.094-.08-.14-.04-.067-.126-.1-.18-.153zM5.77 18.695h-.927a50.854 50.854 0 00-.27-4.41h-.008l-1.41 4.41H2.45l-1.4-4.41h-.01a72.892 72.892 0 00-.195 4.41H0c.055-1.966.192-3.81.41-5.53h1.15l1.335 4.064h.008l1.347-4.064h1.095c.242 2.015.384 3.86.428 5.53zm4.017-4.08c-.378 2.045-.876 3.533-1.492 4.46-.482.716-1.01 1.073-1.583 1.073-.153 0-.34-.046-.566-.138v-.494c.11.017.24.026.386.026.268 0 .483-.075.647-.222.197-.18.295-.382.295-.605 0-.155-.077-.47-.23-.944L6.23 14.615h.91l.727 2.36c.164.536.233.91.205 1.123.4-1.064.678-2.227.835-3.483zm12.325 4.08h-2.63v-5.53h.885v4.85h1.745zm-3.32.135l-1.016-.5c.09-.076.177-.158.255-.25.433-.506.648-1.258.648-2.253 0-1.83-.718-2.746-2.155-2.746-.704 0-1.254.232-1.65.697-.43.508-.646 1.256-.646 2.245 0 .972.19 1.686.574 2.14.35.41.877.615 1.583.615.264 0 .506-.033.725-.098l1.325.772.36-.622zM15.5 17.588c-.225-.36-.337-.94-.337-1.736 0-1.393.424-2.09 1.27-2.09.443 0 .77.167.977.5.224.362.336.936.336 1.723 0 1.404-.424 2.108-1.27 2.108-.445 0-.77-.167-.978-.5zm-1.658-.425c0 .47-.172.856-.516 1.156-.344.3-.803.45-1.384.45-.543 0-1.064-.172-1.573-.515l.237-.476c.438.22.833.328 1.19.328.332 0 .593-.073.783-.22a.754.754 0 00.3-.615c0-.33-.23-.61-.648-.845-.388-.213-1.163-.657-1.163-.657-.422-.307-.632-.636-.632-1.177 0-.45.157-.81.47-1.085.315-.278.72-.415 1.22-.415.512 0 .98.136 1.4.41l-.213.476a2.726 2.726 0 00-1.064-.23c-.283 0-.502.068-.654.206a.685.685 0 00-.248.524c0 .328.234.61.666.85.393.215 1.187.67 1.187.67.433.305.648.63.648 1.168zm9.382-5.852c-.535-.014-.95.04-1.297.188-.1.04-.26.04-.274.167.055.053.063.14.11.214.08.134.218.313.346.407.14.11.28.216.427.31.26.16.555.255.81.416.145.094.293.213.44.313.073.05.12.14.214.172v-.02c-.046-.06-.06-.147-.105-.214-.067-.067-.134-.127-.2-.193a3.223 3.223 0 00-.695-.675c-.214-.146-.682-.35-.77-.595l-.013-.014c.146-.013.32-.066.46-.106.227-.06.435-.047.67-.106.106-.027.213-.06.32-.094v-.06c-.12-.12-.21-.283-.334-.395a8.867 8.867 0 00-1.104-.823c-.21-.134-.476-.22-.697-.334-.08-.04-.214-.06-.26-.127-.12-.146-.19-.34-.275-.514a17.69 17.69 0 01-.547-1.163c-.12-.262-.193-.523-.34-.763-.69-1.137-1.437-1.826-2.586-2.5-.247-.14-.543-.2-.856-.274-.167-.008-.334-.02-.5-.027-.11-.047-.216-.174-.31-.235-.38-.24-1.364-.76-1.644-.072-.18.434.267.862.422 1.082.115.153.26.328.34.5.047.116.06.235.107.356.106.294.207.622.347.897.073.14.153.287.247.413.054.073.146.107.167.227-.094.136-.1.334-.154.5-.24.757-.146 1.693.194 2.25.107.166.362.534.703.393.3-.12.234-.5.32-.835.02-.08.007-.133.048-.187v.015c.094.188.188.367.274.555.206.328.566.668.867.895.16.12.287.328.487.402v-.02h-.015c-.043-.058-.1-.086-.154-.133a3.445 3.445 0 01-.35-.4 8.76 8.76 0 01-.747-1.218c-.11-.21-.202-.436-.29-.643-.04-.08-.04-.2-.107-.24-.1.146-.247.273-.32.453-.127.288-.14.642-.188 1.01-.027.007-.014 0-.027.014-.214-.052-.287-.274-.367-.46-.2-.475-.233-1.238-.06-1.785.047-.14.247-.582.167-.716-.042-.127-.174-.2-.247-.303a2.478 2.478 0 01-.24-.427c-.16-.374-.24-.788-.414-1.162-.08-.173-.22-.354-.334-.513-.127-.18-.267-.307-.368-.52-.033-.073-.08-.194-.027-.274.014-.054.042-.075.094-.09.088-.072.335.022.422.062.247.1.455.194.662.334.094.066.195.193.315.226h.14c.214.047.455.014.655.073.355.114.675.28.962.46a5.953 5.953 0 012.085 2.286c.08.154.115.295.188.455.14.33.313.663.455.982.14.315.275.636.476.897.1.14.502.213.682.286.133.06.34.115.46.188.23.14.454.3.67.454.11.076.443.243.463.378z"/>
      </svg>
      <svg class="logo" x="740" y="17" width="36" height="36" viewBox="0 0 128 128">

        <path class="adaptive-icon" d="M36.379 53.64c0 1.56.168 2.825.465 3.75.336.926.758 1.938 1.347 3.032.207.336.293.672.293.969 0 .418-.254.84-.8 1.261l-2.653 1.77c-.379.25-.758.379-1.093.379-.422 0-.844-.211-1.266-.59a13.28 13.28 0 0 1-1.516-1.98 34.153 34.153 0 0 1-1.304-2.485c-3.282 3.875-7.41 5.813-12.38 5.813-3.535 0-6.355-1.012-8.421-3.032-2.063-2.023-3.114-4.718-3.114-8.086 0-3.578 1.262-6.484 3.833-8.671 2.566-2.192 5.976-3.286 10.316-3.286 1.43 0 2.902.125 4.46.336 1.56.211 3.161.547 4.845.926v-3.074c0-3.2-.676-5.43-1.98-6.734C26.061 32.633 23.788 32 20.546 32c-1.473 0-2.988.168-4.547.547a33.416 33.416 0 0 0-4.547 1.433c-.676.293-1.18.461-1.473.547-.296.082-.507.125-.675.125-.59 0-.883-.422-.883-1.304v-2.063c0-.676.082-1.18.293-1.476.21-.293.59-.586 1.18-.883 1.472-.758 3.242-1.39 5.304-1.895 2.063-.547 4.254-.8 6.57-.8 5.008 0 8.672 1.136 11.032 3.41 2.316 2.273 3.492 5.726 3.492 10.359v13.64Zm-17.094 6.403c1.387 0 2.82-.254 4.336-.758 1.516-.508 2.863-1.433 4-2.695.672-.8 1.18-1.684 1.43-2.695.254-1.012.422-2.23.422-3.665v-1.765a34.401 34.401 0 0 0-3.871-.719 31.816 31.816 0 0 0-3.961-.25c-2.82 0-4.883.547-6.274 1.684-1.387 1.136-2.062 2.734-2.062 4.84 0 1.98.504 3.453 1.558 4.464 1.012 1.051 2.485 1.559 4.422 1.559Zm33.809 4.547c-.758 0-1.262-.125-1.598-.422-.34-.254-.633-.84-.887-1.64L40.715 29.98c-.25-.843-.38-1.39-.38-1.687 0-.672.337-1.05 1.013-1.05h4.125c.8 0 1.347.124 1.644.421.336.25.59.84.84 1.64l7.074 27.876 6.57-27.875c.208-.84.462-1.39.797-1.64.34-.255.93-.423 1.688-.423h3.367c.8 0 1.348.125 1.684.422.336.25.633.84.8 1.64l6.653 28.212 7.285-28.211c.25-.84.547-1.39.84-1.64.336-.255.887-.423 1.644-.423h3.914c.676 0 1.055.336 1.055 1.051 0 .21-.043.422-.086.676-.043.254-.125.59-.293 1.05L80.801 62.57c-.254.84-.547 1.387-.887 1.64-.336.255-.883.423-1.598.423h-3.62c-.801 0-1.348-.13-1.684-.422-.34-.297-.633-.844-.801-1.684l-6.527-27.16-6.485 27.117c-.21.844-.46 1.391-.8 1.684-.337.297-.926.422-1.684.422Zm54.105 1.137c-2.187 0-4.379-.254-6.484-.758-2.106-.504-3.746-1.055-4.84-1.684-.676-.379-1.137-.8-1.305-1.18a2.919 2.919 0 0 1-.254-1.18v-2.148c0-.882.336-1.304.97-1.304.25 0 .503.043.757.129.25.082.629.25 1.05.418a23.102 23.102 0 0 0 4.634 1.476c1.683.336 3.324.504 5.011.504 2.653 0 4.715-.465 6.145-1.39 1.433-.926 2.191-2.274 2.191-4 0-1.18-.379-2.145-1.136-2.946-.758-.8-2.192-1.516-4.254-2.191l-6.106-1.895c-3.074-.969-5.348-2.398-6.734-4.293-1.39-1.855-2.106-3.918-2.106-6.105 0-1.77.38-3.328 1.137-4.676a10.829 10.829 0 0 1 3.031-3.453c1.262-.965 2.696-1.684 4.38-2.188 1.683-.504 3.452-.715 5.304-.715.926 0 1.894.043 2.82.168.969.125 1.852.293 2.738.461.84.211 1.641.422 2.399.676.758.254 1.348.504 1.77.758.59.336 1.011.672 1.261 1.05.254.34.379.802.379 1.391v1.98c0 .884-.336 1.348-.969 1.348-.336 0-.883-.171-1.597-.507-2.403-1.094-5.098-1.641-8.086-1.641-2.399 0-4.293.379-5.598 1.18-1.309.797-1.98 2.02-1.98 3.746 0 1.18.421 2.191 1.261 2.988.844.8 2.403 1.602 4.633 2.316l5.98 1.895c3.032.969 5.22 2.316 6.524 4.043 1.305 1.727 1.938 3.707 1.938 5.895 0 1.812-.38 3.453-1.094 4.882-.758 1.434-1.77 2.696-3.074 3.707-1.305 1.051-2.864 1.809-4.672 2.36-1.895.586-3.875.883-6.024.883Zm0 0"/>
        <path fill="#f90" d="M118 73.348c-4.432.063-9.664 1.052-13.621 3.832-1.223.883-1.012 2.062.336 1.894 4.508-.547 14.44-1.726 16.21.547 1.77 2.23-1.976 11.62-3.663 15.79-.504 1.26.59 1.769 1.726.8 7.41-6.231 9.348-19.242 7.832-21.137-.757-.925-4.388-1.79-8.82-1.726zM1.63 75.859c-.927.116-1.347 1.236-.368 2.121 16.508 14.902 38.359 23.872 62.613 23.872 17.305 0 37.43-5.43 51.281-15.66 2.273-1.688.297-4.254-2.02-3.204-15.534 6.57-32.421 9.77-47.788 9.77-22.778 0-44.8-6.273-62.653-16.633-.39-.231-.755-.304-1.064-.266z"/>
      </svg>
      <svg class="logo" x="830" y="17" width="36" height="36" viewBox="0 0 24 24">
        <path fill="#F03C2E" d="M13.09 23.549a1.54 1.54 0 0 1-2.18 0L.451 13.089a1.54 1.54 0 0 1 0-2.179l7.191-7.19 2.733 2.733a1.85 1.85 0 0 0 .964 2.326v6.66a1.849 1.849 0 1 0 1.54 0V8.957l2.508 2.508a1.85 1.85 0 1 0 1.09-1.09l-2.634-2.634a1.85 1.85 0 0 0-2.378-2.377L8.73 2.63 10.91.451a1.54 1.54 0 0 1 2.179 0l10.459 10.46a1.54 1.54 0 0 1 0 2.179z"/>
      </svg>
      </g>
    </g>
  </g>
</svg>